<svg width="424" height="63" viewBox="0 0 424 63" fill="none" xmlns="http://www.w3.org/2000/svg">
<path d="M48.3239 40.423H57.246C57.3127 44.7785 60.9106 48.1708 66.998 48.1708C72.1829 48.1708 75.5023 45.9537 75.5023 42.2948C75.5023 31.2274 49.7776 40.1504 49.7776 20.372C49.7776 12.6969 55.865 6.40298 66.5074 6.40298C75.7082 6.40298 83.5219 11.2431 83.7945 21.3413H74.5997C74.5271 17.3311 71.6923 14.6354 66.5074 14.6354C61.3891 14.6354 58.8996 17.1978 58.8996 20.2388C58.8996 30.3369 84.9696 22.0379 84.9696 41.6103C84.9696 50.1819 78.3309 56.6152 66.7133 56.6152C55.653 56.6031 48.3239 50.0305 48.3239 40.423Z" fill="#191919"/>
<path d="M107.151 47.6983H120.028V15.3017H107.151V7.26924H142.319V15.3017H129.235V47.6983H142.319V55.7308H107.151V47.6983Z" fill="#191919"/>
<path d="M178.177 15.3684H163.779V7.26924H201.854V15.3684H187.384V55.7308H178.177V15.3684Z" fill="#191919"/>
<path d="M223.321 47.6983H236.198V15.3017H223.321V7.26924H258.489V15.3017H245.405V47.6983H258.489V55.7308H223.321V47.6983Z" fill="#191919"/>
<path d="M308.181 38.6905V24.3095C308.181 19.6754 305.068 15.2472 298.987 15.2472C292.899 15.2472 289.786 19.6754 289.786 24.3095V38.6905C289.786 43.3913 292.833 47.7528 298.987 47.7528C305.141 47.7528 308.181 43.3913 308.181 38.6905ZM280.591 39.1751V23.8188C280.591 13.86 287.993 6.39087 298.987 6.39087C309.98 6.39087 317.382 13.86 317.382 23.8188V39.1751C317.382 49.1339 309.98 56.6031 298.987 56.6031C287.993 56.6031 280.591 49.1339 280.591 39.1751Z" fill="#191919"/>
<path d="M337.904 7.26924H347.801L366.427 39.2539H366.839V7.26924H375.7V55.7308H365.658L347.177 23.7462H346.765V55.7308H337.904V7.26924Z" fill="#191919"/>
<path d="M0 0H16.7541V7.26923H8.65566V55.6581H16.7541V63H0V0Z" fill="#FE5000"/>
<path d="M407.246 55.6581H415.278V7.26923H407.246V0H424V63H407.246V55.6581Z" fill="#FE5000"/>
</svg>
